<?xml version="1.0" encoding="UTF-8"?>
<svg xmlns="http://www.w3.org/2000/svg" viewBox="0 0 386.06 250.6">
  <defs>
    <style>
      .cls-1 {
        fill: #175668;
      }

      .cls-2 {
        fill: #e94924;
      }

      .cls-3 {
        fill: #1d838e;
      }
    </style>
  </defs>
  <g id="Layer_11" data-name="Layer 11">
    <path class="cls-2" d="m83.27,56.32c58.09-43.12,135.64-37.08,173.37,13.43-.3-.51-.57-1.02-.87-1.52C220.31,9.89,141.34-6.86,79.38,30.81,17.41,68.48-4.07,146.3,31.39,204.63c2.49,4.09,5.21,7.95,8.1,11.63-28.71-50.31-10.65-119.54,43.78-159.94Z"/>
  </g>
  <g id="Layer_10" data-name="Layer 10">
    <path class="cls-1" d="m272.83,88.84l113.23,144.11c-2.66,2.42-325.72-19.85-386.06,17.65,44.17-36.99,172.47-48.89,321.35-51.47,4.9-.08-55.88-85.29-55.88-85.29l-44.19,37.4-4.55-5.3,56.1-57.09Z"/>
  </g>
  <g id="Layer_9" data-name="Layer 9">
    <path class="cls-3" d="m94.55,189.25c13.56-14.97,76.35-84.78,76.35-84.78l77.2,81.61s-138.35,8.38-199.73,30.16c-.42.15-.66-.49-.25-.67,42.52-18.98,53.91-27.72,149.31-42.89l-30.94-36.6-71.45,53.68c-.35.26-.77-.2-.48-.52Z"/>
  </g>
</svg>